<svg xmlns="http://www.w3.org/2000/svg" width="124" height="147" fill="none">
  <mask id="a" width="124" height="147" x="0" y="0" maskUnits="userSpaceOnUse" style="mask-type:alpha">
    <path fill="#F8B500" d="M116 0H8a8 8 0 0 0-8 8v108c0 4.418 3.582 9 8 9h28v21.5L65 125h51c4.418 0 8-4.582 8-9V8a8 8 0 0 0-8-8Z"/>
  </mask>
  <g mask="url(#a)">
    <path fill="#F8B500" d="M0 0h124v147H0z"/>
    <path fill="#fff" d="M30.089 96.818c.107.44-1.16.983-3.803 1.627-2.617.637-3.979.736-4.086.295l-4.67-19.159-4.187 1.062c-.777.19-1.469-.96-2.075-3.447a13.442 13.442 0 0 1-.373-2.544c-.014-.847.186-1.322.6-1.422l10.649-2.596c.44-.107.815-.088 1.125.056.329.112.528.31.598.595l6.222 25.533Zm14.605-2.448c-3.238.79-6.184.245-8.838-1.634-2.627-1.885-4.5-5.12-5.617-9.706-1.118-4.585-.925-8.297.58-11.134 1.498-2.862 3.88-4.692 7.144-5.487 3.29-.802 6.23-.283 8.819 1.556 2.59 1.84 4.455 5.104 5.598 9.793 1.143 4.69.959 8.44-.552 11.25-1.491 2.78-3.869 4.567-7.134 5.362Zm-4.99-20.48c-.985.24-1.688 1.015-2.11 2.325-.402 1.278-.35 2.954.155 5.026.505 2.073 1.217 3.588 2.136 4.544.939.924 1.926 1.26 2.963 1.007 1.062-.259 1.781-1.024 2.157-2.296.403-1.278.351-2.954-.154-5.027-.505-2.072-1.243-3.58-2.214-4.524-.945-.95-1.923-1.302-2.934-1.055ZM57.174 88.2c-.176-.726-.194-1.586-.052-2.581.135-1.021.305-1.845.51-2.471.197-.652.322-.985.374-.997 1.724.54 3.414.609 5.073.205 1.036-.253 1.814-.662 2.335-1.228.547-.573.732-1.222.555-1.947-.183-.751-.598-1.158-1.244-1.22-.62-.069-1.575.013-2.864.245l-1.399.34c-.31.076-.7-.227-1.168-.909a7.321 7.321 0 0 1-.938-2.159c-.297-1.218-.086-1.928.633-2.13l1.118-.314c.7-.17 1.378-.542 2.034-1.113.676-.604.939-1.217.787-1.839-.265-1.088-1.369-1.395-3.312-.922-1.451.354-2.78.98-3.989 1.878-1.677-1.814-2.658-3.305-2.942-4.47-.29-1.192.308-2.285 1.795-3.279 1.513-1 3.513-1.803 6-2.409 2.487-.606 4.557-.561 6.208.134 1.652.695 2.695 1.937 3.131 3.725.764 3.135.004 5.872-2.28 8.213 3.586.526 5.765 2.37 6.535 5.53.6 2.461.218 4.668-1.145 6.62-1.37 1.925-3.674 3.283-6.913 4.072-2.046.499-3.981.668-5.804.509-1.83-.186-2.842-.68-3.038-1.483ZM55.13 39.923l-7.704-2.033c-.542-.142-.782-.768-.721-1.878.043-.6.103-1.048.18-1.342.078-.294.175-.475.293-.543 4.408-2.66 6.782-4.632 7.12-5.916.115-.433.084-.788-.09-1.066-.16-.274-.487-.476-.982-.607a4.286 4.286 0 0 0-1.536-.107c-.528.06-.96.16-1.296.303-.412-.886-.627-1.762-.647-2.628a2.654 2.654 0 0 1 .074-.75c.06-.232.157-.438.287-.619.23-.37.902-.597 2.017-.684 1.13-.082 2.268.028 3.413.33 3.466.914 4.792 2.91 3.98 5.99-.36 1.36-1.189 2.623-2.488 3.786a17.145 17.145 0 0 1-4.204 2.763l4.736 1.051c-.139.84-.288 1.562-.447 2.166-.16.603-.418 1.08-.776 1.433-.357.352-.76.47-1.209.351ZM71.469 26.86c.294.078.271.758-.067 2.043-.107.402-.272.871-.496 1.408-.205.525-.4.763-.586.714l-4.525-1.194-.47 1.688.766.202c1.655.437 2.759 1.24 3.31 2.412.567 1.176.642 2.553.226 4.13-.417 1.579-1.314 2.723-2.694 3.435-1.375.696-2.936.814-4.685.353-1.748-.462-2.959-1.046-3.633-1.753-.07-.234-.05-.56.06-.977.114-.434.335-1.02.663-1.762.332-.756.606-1.105.823-1.048.015.004.053.047.114.13.98.738 1.757 1.182 2.33 1.333.587.156 1.107.127 1.56-.084a1.59 1.59 0 0 0 .905-1.077c.327-1.238-.175-2.032-1.506-2.383l-2.002-.503c-.163-.01-.301-.113-.415-.308a.96.96 0 0 1-.06-.711l1.916-7.264c.167-.634.483-.89.947-.768l7.519 1.984Zm-1.157 15.432c.114-.434.35-.892.71-1.377.364-.5.689-.885.976-1.157.29-.287.452-.427.483-.419.754.778 1.626 1.298 2.616 1.56.62.163 1.147.17 1.584.02.452-.145.735-.435.85-.868.117-.449.015-.782-.308-1-.308-.213-.835-.443-1.58-.69l-.836-.22c-.185-.049-.304-.32-.356-.814a4.392 4.392 0 0 1 .123-1.407c.192-.727.507-1.041.944-.942l.679.154c.418.11.881.109 1.391-.005.53-.125.843-.373.941-.745.172-.65-.323-1.127-1.483-1.434a6.588 6.588 0 0 0-2.64-.15c-.366-1.437-.457-2.503-.274-3.2.188-.711.816-1.117 1.885-1.215 1.084-.095 2.368.054 3.854.446 1.485.392 2.563 1.007 3.236 1.846.672.84.867 1.793.585 2.86-.494 1.872-1.678 3.099-3.552 3.68 1.741 1.303 2.363 2.899 1.865 4.786-.388 1.47-1.22 2.524-2.498 3.163-1.273.624-2.877.681-4.81.17-1.223-.322-2.292-.786-3.208-1.391-.911-.621-1.304-1.172-1.177-1.651Zm18.735 6.258c-.143.227-.996.135-2.558-.277-1.563-.413-2.418-.713-2.567-.901-.05-.063-.067-.125-.05-.187l6.875-10.348-4.71-1.243c-.465-.123-.499-.934-.103-2.435.135-.51.312-.993.531-1.449.235-.45.476-.643.724-.578l8.128 2.12c.619.163 1.032.636 1.239 1.419.096.389.138.764.125 1.125l-7.634 12.754ZM97.77 85.723c-.241 1.549-1 2.726-2.275 3.531-1.26.808-2.822 1.066-4.687.776-1.85-.289-3.24-.983-4.17-2.083-.91-1.114-1.248-2.43-1.011-3.947.239-1.534 1.217-2.774 2.936-3.72-.93-1.1-1.293-2.307-1.088-3.62.205-1.311.887-2.314 2.048-3.008 1.16-.693 2.54-.915 4.136-.666 1.597.248 2.806.85 3.63 1.804.84.94 1.158 2.019.953 3.233-.188 1.202-.864 2.214-2.028 3.036a5.56 5.56 0 0 1 1.3 2.098c.311.81.397 1.665.256 2.566Zm-7.389-1.37c-.071.458.005.85.23 1.177.242.313.569.501.98.565.411.064.764-.018 1.059-.248.313-.242.505-.593.577-1.051.133-.854-.303-1.642-1.308-2.366-.882.365-1.395 1.005-1.538 1.922Zm3.607-6.313a1.17 1.17 0 0 0-.242-.936c-.2-.274-.45-.435-.751-.481-.806-.126-1.286.196-1.438.966-.111.711.33 1.468 1.322 2.27.631-.517 1-1.123 1.11-1.819Z"/>
  </g>
</svg>
